# xmcd CD database file
#
# Track frame offsets:
#	150
#	12783
#	24381
#	42297
#	61351
#	74156
#	94818
#	106645
#	121694
#	145406
#	157483
#	172385
#	198473
#
# Disc length: 2833 seconds
#
# Revision: 0
# Processed by: cddbd v1.4PL0 Copyright (c) Steve Scherf et al.
# Submitted via: CDex 1.50Beta7
#
DISCID=bc0b0f0d
DTITLE=Club Tabou - Mange Tout
DYEAR=2002
DGENRE=Jazz
TTITLE0=Jojo Swing
TTITLE1=China Boy
TTITLE2=La Bikina
TTITLE3=Dinette
TTITLE4=Nuit de St. Germain des Pres
TTITLE5=Fleur de Lavende
TTITLE6=Kleine Harmonika
TTITLE7=Honeysuckle Rose
TTITLE8=Melodie au Crepescule
TTITLE9=Hungaria
TTITLE10=Bei mir bist du Schoen
TTITLE11=Swing 39
TTITLE12=Stardust
EXTD=YEAR: 2002
EXTT0=
EXTT1=
EXTT2=
EXTT3=
EXTT4=
EXTT5=
EXTT6=
EXTT7=
EXTT8=
EXTT9=
EXTT10=
EXTT11=
EXTT12=
PLAYORDER=
